# AST/ASF file generated using VICON BodyLanguage
# -----------------------------------------------
:version 1.10
:name VICON
:units
  mass 1.0
  length 0.45
  angle deg
:documentation
   .ast/.asf automatically generated from VICON data using
   VICON BodyBuilder and BodyLanguage model FoxedUp or BRILLIANT.MOD
:root
   order TX TY TZ RX RY RZ
   axis XYZ
   position 0 0 0  
   orientation 0 0 0 
:bonedata
  begin
     id 1 
     name lhipjoint
     direction 0.643824 -0.71708 0.266994 
     length 2.52133 
     axis 0 0 0  XYZ
  end
  begin
     id 2 
     name lfemur
     direction 0.34202 -0.939693 0  
     length 7.51824  
     axis 0 0 20  XYZ
    dof rx ry rz
    limits (-160.0 20.0)
           (-70.0 70.0)
           (-60.0 70.0)
  end
  begin
     id 3 
     name ltibia
     direction 0.34202 -0.939693 0   
     length 7.3685   
     axis 0 0 20   XYZ
    dof rx
    limits (-10.0 170.0)
  end
  begin
     id 4 
     name lfoot
     direction 0.105419 -0.289636 0.951314   
     length 2.20972   
     axis -90 7.62852e-016 20   XYZ
    dof rx rz
    limits (-45.0 90.0)
           (-70.0 20.0)
  end
  begin
     id 5 
     name ltoes
     direction 1.53549e-011 -4.21833e-011 1   
     length 1.10139   
     axis -90 7.62852e-016 20   XYZ
    dof rx
    limits (-90.0 20.0)
  end
  begin
     id 6 
     name rhipjoint
     direction -0.608823 -0.743445 0.276811   
     length 2.43192  
     axis 0 0 0  XYZ 
  end
  begin
     id 7 
     name rfemur
     direction -0.34202 -0.939693 0   
     length 7.69715   
     axis 0 0 -20   XYZ
    dof rx ry rz
    limits (-160.0 20.0)
           (-70.0 70.0)
           (-70.0 60.0)
  end
  begin
     id 8 
     name rtibia
     direction -0.34202 -0.939693 0   
     length 7.44924   
     axis 0 0 -20   XYZ
    dof rx
    limits (-10.0 170.0)
 end
 begin
     id 9 
     name rfoot
     direction -0.103614 -0.284677 0.953007   
     length 2.22623  
     axis -90 -7.62852e-016 -20   XYZ
    dof rx rz
    limits (-45.0 90.0)
           (-20.0 70.0)
  end
  begin
     id 10 
     name rtoes
     direction -1.53537e-011 -4.22026e-011 1   
     length 1.11   
     axis -90 -7.62852e-016 -20   XYZ
    dof rx
    limits (-90.0 20.0)
  end
  begin
     id 11 
     name lowerback
     direction -0.0101212 0.99662 -0.0815298   
     length 2.08277   
     axis 0 0 0   XYZ
    dof rx ry rz
    limits (-20.0 45.0)
           (-30.0 30.0)
           (-30.0 30.0)
  end
  begin
     id 12 
     name upperback
     direction 0.024314 0.999591 -0.0150645   
     length 2.08524   
     axis 0 0 0   XYZ
    dof rx ry rz
    limits (-20.0 45.0)
           (-30.0 30.0)
           (-30.0 30.0)
  end
  begin
     id 13 
     name thorax
     direction 0.0285959 0.999323 0.0231357   
     length 2.09645   
     axis 0 0 0   XYZ
    dof rx ry rz
    limits (-20.0 45.0)
           (-30.0 30.0)
           (-30.0 30.0)
  end
  begin
     id 14 
     name lowerneck
     direction -0.065512 0.979301 0.191515   
     length 1.63798   
     axis 0 0 0   XYZ
    dof rx ry rz
    limits (-20.0 45.0)
           (-30.0 30.0)
           (-30.0 30.0)
  end
  begin
     id 15 
     name upperneck
     direction 0.0498479 0.98191 -0.182667   
     length 1.68731   
     axis 0 0 0   XYZ
    dof rx ry rz
    limits (-20.0 45.0)
           (-30.0 30.0)
           (-30.0 30.0)
  end
  begin
     id 16
     name head
     direction 0.0230358 0.996257 -0.0833175  
     length 1.69785  
     axis 0 0 0   XYZ
    dof rx ry rz
    limits (-20.0 45.0)
           (-30.0 30.0)
           (-30.0 30.0)
  end
  begin
     id 17 
     name lclavicle
     direction 0.967963 0.201165 -0.150269  
     length 3.63976  
     axis 0 0 0   XYZ
    dof ry rz
    limits (-20.0 10.0)
           (0.0 20.0)
  end
  begin
     id 18 
     name lhumerus
     direction 1 -4.48954e-011 -2.92837e-028   
     length 5.32462   
     axis 180 -30 -90   XYZ
    dof rx ry rz
    limits (-60.0 90.0)
           (-90.0 90.0)
           (-90.0 90.0)
  end
  begin
     id 19
     name lradius
     direction 1 -4.48958e-011 -6.39511e-027   
     length 3.48402   
     axis 180 -30 -90   XYZ
    dof rx
    limits (-10.0 170.0)
  end
  begin
     id 20
     name lwrist
     direction 1 -4.48975e-011 -1.1413e-026   
     length 1.74201   
     axis 6.88575e-015 90 90   XYZ
    dof ry
    limits (-180.0 0.0)
 end
  begin
     id 21 
     name lhand
     direction 1 -4.48899e-011 -2.28192e-026   
     length 0.572476   
     axis 1.45643e-014 90 90   XYZ
    dof rx rz
    limits (-90.0 90.0)
           (-45.0 45.0)
  end
  begin
     id 22 
     name lfingers
     direction 1 -4.49155e-011 -4.5684e-026   
     length 0.461545   
     axis 2.91283e-014 90 90   XYZ
    dof rx
    limits (0.0 90.0)
  end
  begin
     id 23
     name lthumb
     direction 0.707107 -6.34943e-011 0.707107   
     length 0.662688   
     axis -90 45 -2.25915e-014   XYZ
    dof rx rz
    limits (-45.0 45.0)
           (-45.0 45.0)
  end
  begin
     id 24 
     name rclavicle
     direction -0.964103 0.264019 -0.0282629   
     length 3.54491  
     axis 0 0 0   XYZ 
    dof ry rz
    limits (-10.0 20.0)
           (-20.0 0.0)
  end
  begin
     id 25 
     name rhumerus
     direction -1 -4.48964e-011 -2.45032e-027  
     length 5.33589   
     axis 180 30 90   XYZ
    dof rx ry rz
    limits (-90.0 60.0)
           (-90.0 90.0)
           (-90.0 90.0)
  end
  begin
     id 26 
     name rradius
     direction -1 -4.48987e-011 -1.55093e-027   
     length 3.64134   
     axis 180 30 90   XYZ
    dof rx
    limits (-10.0 170.0)
  end
  begin
     id 27 
     name rwrist
     direction -1 -4.4897e-011 -1.14128e-026   
     length 1.82067   
     axis 6.88575e-015 -90 -90   XYZ
    dof ry
    limits (-180.0 0.0)
  end
  begin
     id 28
     name rhand
     direction -1 -4.49021e-011 -2.28301e-026   
     length 0.734811   
     axis 1.45643e-014 -90 -90   XYZ
    dof rx rz
    limits (-90.0 90.0)
           (-45.0 45.0)
  end
  begin
     id 29
     name rfingers
     direction -1 -4.48862e-011 -4.56319e-026   
     length 0.592424   
     axis 2.91283e-014 -90 -90   XYZ
    dof rx
    limits (0.0 90.0)
  end
  begin
     id 30
     name rthumb
     direction -0.707107 -6.34978e-011 0.707107   
     length 0.850605   
     axis -90 -45 2.25915e-014   XYZ
    dof rx rz
    limits (-45.0 45.0)
           (-45.0 45.0)
  end
:hierarchy
  begin
    root lhipjoint rhipjoint lowerback
    lhipjoint lfemur
    lfemur ltibia
    ltibia lfoot
    lfoot ltoes
    rhipjoint rfemur
    rfemur rtibia
    rtibia rfoot
    rfoot rtoes
    lowerback upperback
    upperback thorax
    thorax lowerneck lclavicle rclavicle
    lowerneck upperneck
    upperneck head
    lclavicle lhumerus
    lhumerus lradius
    lradius lwrist
    lwrist lhand lthumb
    lhand lfingers
    rclavicle rhumerus
    rhumerus rradius
    rradius rwrist
    rwrist rhand rthumb
    rhand rfingers
  end

#!OML:ASF F:\VICON\USERDATA\INSTALL\rory3\rory3.ASF
:FULLY-SPECIFIED
:DEGREES
79
root 9.30332 17.8042 -0.166885 -11.5927 -79.6259 20.0763
lowerback 3.27955 -0.401977 -0.46498
upperback 2.55355 -0.602276 2.2915
thorax 0.810768 -0.346652 2.62763
lowerneck -14.4451 -2.8258 -11.6899
upperneck 37.8662 -2.23501 0.542172
head 16.1516 -2.97595 1.77378
rclavicle 1.70955e-014 -3.18055e-014
rhumerus -24.3576 2.39898 -79.6
rradius 52.3434
rwrist 14.3151
rhand -26.2748 7.69089
rfingers 7.12502
rthumb 0.28037 -22.2887
lclavicle 1.70955e-014 -3.18055e-014
lhumerus -27.3737 1.26454 89.76
lradius 31.4711
lwrist -7.14113
lhand -15.0749 23.8624
lfingers 7.12502
lthumb 11.0925 53.5492
rfemur -14.2274 1.70272 22.0272
rtibia 30.3153
rfoot -22.5277 -5.66706
rtoes 6.02861
lfemur -31.4307 4.34968 -20.8755
ltibia 36.2918
lfoot -5.06318 2.54706
ltoes -16.0344
80
root 9.27209 17.8022 -0.163716 -10.1735 -79.525 18.6448
lowerback 3.35405 -0.41611 -0.309004
upperback 2.60154 -0.620201 2.34661
thorax 0.818281 -0.355384 2.59756
lowerneck -14.4145 -2.82348 -11.7945
upperneck 37.884 -2.2486 0.66175
head 16.158 -2.98032 1.84245
rclavicle -1.19271e-015 -4.77083e-015
rhumerus -24.2499 2.46673 -79.6002
rradius 52.458
rwrist 14.5127
rhand -27.3504 8.15488
rfingers 7.12502
rthumb -0.758515 -21.8235
lclavicle -1.19271e-015 -4.77083e-015
lhumerus -27.4295 1.00931 89.8229
lradius 31.5423
lwrist -6.77154
lhand -15.1271 24.2606
lfingers 7.12502
lthumb 11.0421 53.9502
rfemur -14.0691 1.62057 22.3137
rtibia 30.2308
rfoot -22.6198 -5.8168
rtoes 6.08923
lfemur -31.5367 4.25786 -20.7565
ltibia 35.4896
lfoot -5.20832 3.05412
ltoes -17.2673
81
root 9.23856 17.8004 -0.162444 -8.29334 -79.363 16.7138
lowerback 3.46226 -0.455594 -0.178023
upperback 2.63379 -0.672986 2.48835
thorax 0.793898 -0.382759 2.67229
lowerneck -14.3717 -2.79475 -11.8633
upperneck 37.9269 -2.20202 0.683328
head 16.1682 -2.97067 1.87243
rclavicle -1.98785e-015 1.74931e-014
rhumerus -24.0627 2.45718 -79.5175
rradius 52.4451
rwrist 14.7761
rhand -28.1154 8.67065
rfingers 7.12502
rthumb -1.49741 -21.3038
lclavicle -1.98785e-015 1.74931e-014
lhumerus -27.5217 1.04643 89.8973
lradius 31.5217
lwrist -6.83598
lhand -15.1588 24.3349
lfingers 7.12502
lthumb 11.0116 54.026
rfemur -13.8521 1.73964 22.6823
rtibia 30.1472
rfoot -22.8829 -6.04459
rtoes 6.66216
lfemur -31.6064 3.88384 -20.4922
ltibia 34.6433
lfoot -5.17412 3.40278
ltoes -18.0616
82
root 9.20627 17.7928 -0.154878 -8.17239 -79.1965 16.5909
lowerback 3.54858 -0.447712 -0.218888
upperback 2.67388 -0.664147 2.48189
thorax 0.786866 -0.37945 2.68915
lowerneck -14.2922 -2.7936 -11.9111
upperneck 37.9257 -2.19349 0.672593
head 16.1494 -2.97497 1.87853
rclavicle 3.57812e-015 -1.59028e-015
rhumerus -23.8701 2.27823 -79.456
rradius 52.432
rwrist 15.1603
rhand -29.0303 9.05859
rfingers 7.12502
rthumb -2.38098 -20.9079
lclavicle 3.57812e-015 -1.59028e-015
lhumerus -27.4949 0.954947 89.9296
lradius 31.403
lwrist -6.89186
lhand -14.908 24.3157
lfingers 7.12502
lthumb 11.2535 53.9938
rfemur -13.6616 1.83317 22.6559
rtibia 30.058
rfoot -23.1071 -6.13567
rtoes 6.82158
lfemur -31.6779 3.65572 -20.6144
ltibia 33.7406
lfoot -4.84644 3.47822
ltoes -17.041
83
root 9.17381 17.7853 -0.141546 -8.55559 -78.9699 16.9906
lowerback 3.6058 -0.493029 -0.272311
upperback 2.74136 -0.726978 2.42432
thorax 0.827172 -0.412123 2.66187
lowerneck -14.2538 -2.80835 -11.953
upperneck 37.8904 -2.18316 0.613552
head 16.1231 -2.98201 1.86236
rclavicle 1.23246e-014 -1.43125e-014
rhumerus -23.7153 2.47872 -79.3752
rradius 52.5373
rwrist 15.4197
rhand -30.0423 9.24904
rfingers 7.12502
rthumb -3.35831 -20.7043
lclavicle 1.23246e-014 -1.43125e-014
lhumerus -27.379 1.26983 89.8469
lradius 31.2167
lwrist -7.30039
lhand -14.5212 24.2302
lfingers 7.12502
lthumb 11.6265 53.8877
rfemur -13.4782 1.84779 22.4757
rtibia 29.9722
rfoot -23.0868 -6.09602
rtoes 7.31686
lfemur -31.7702 3.41523 -20.879
ltibia 32.8533
lfoot -4.64927 3.68705
ltoes -15.5475
84
root 9.13821 17.7819 -0.123961 -7.93171 -78.3752 16.3447
lowerback 3.65401 -0.664218 -0.136836
upperback 2.79968 -0.953417 2.41367
thorax 0.868762 -0.524603 2.58108
lowerneck -14.2545 -2.8468 -12.0457
upperneck 37.941 -2.2122 0.606548
head 16.156 -3.01049 1.86972
rclavicle -2.5842e-014 -2.22639e-014
rhumerus -23.5868 2.41177 -79.2136
rradius 52.6488
rwrist 15.9309
rhand -31.1192 9.40817
rfingers 7.12502
rthumb -4.39826 -20.5262
lclavicle -2.5842e-014 -2.22639e-014
lhumerus -27.3454 1.68724 89.7988
lradius 31.1044
lwrist -7.77313
lhand -14.129 24.1174
lfingers 7.12502
lthumb 12.0048 53.7532
rfemur -13.2645 1.47731 22.4672
rtibia 29.9351
rfoot -22.9606 -6.03174
rtoes 8.79757
lfemur -31.8479 2.68268 -20.9728
ltibia 31.9461
lfoot -4.58931 4.20024
ltoes -14.7986
85
root 9.11266 17.7726 -0.111146 -7.51399 -79.1493 15.4512
lowerback 4.37369 -0.355514 0.131789
upperback 2.97537 -0.536745 2.43102
thorax 0.626226 -0.315968 2.44213
lowerneck -14.2644 -2.89764 -12.1093
upperneck 37.996 -2.28569 0.651401
head 16.196 -3.04554 1.8871
rclavicle -5.96354e-015 -1.35174e-014
rhumerus -23.4502 2.07733 -79.1431
rradius 52.6968
rwrist 16.6888
rhand -32.4936 9.21728
rfingers 7.12502
rthumb -5.72526 -20.6854
lclavicle -5.96354e-015 -1.35174e-014
lhumerus -27.3603 1.6515 89.8032
lradius 31.1136
lwrist -7.70663
lhand -13.865 24.1008
lfingers 7.12502
lthumb 12.2592 53.7215
rfemur -12.7014 1.66235 22.7404
rtibia 29.8659
rfoot -22.8095 -5.56933
rtoes 8.52079
lfemur -31.368 3.08181 -20.7077
ltibia 31.0836
lfoot -4.69302 5.00808
ltoes -14.6633
86
root 9.07949 17.7603 -0.0990416 -7.20648 -79.2358 14.9619
lowerback 4.66326 -0.284836 0.244081
upperback 3.08381 -0.440522 2.40406
thorax 0.571246 -0.268072 2.34956
lowerneck -14.2305 -2.91362 -12.1425
upperneck 38.0171 -2.32371 0.700403
head 16.2032 -3.05952 1.90819
rclavicle 5.96354e-015 8.74653e-015
rhumerus -23.252 1.83286 -79.1141
rradius 52.6431
rwrist 17.4499
rhand -33.6687 9.29685
rfingers 7.12502
rthumb -6.85978 -20.572
lclavicle 5.96354e-015 8.74653e-015
lhumerus -27.398 1.25975 89.8375
lradius 31.1897
lwrist -7.33039
lhand -13.7014 24.2578
lfingers 7.12502
lthumb 12.417 53.869
rfemur -12.3336 1.67973 22.8552
rtibia 29.776
rfoot -23.3741 -5.66523
rtoes 7.44053
lfemur -31.2481 3.02711 -20.6986
ltibia 30.228
lfoot -4.67571 5.38015
ltoes -15.1703
87
root 9.04088 17.7553 -0.0899226 -6.91915 -78.9643 14.7582
lowerback 4.62896 -0.359958 0.173023
upperback 3.11174 -0.544625 2.41927
thorax 0.624071 -0.32185 2.40898
lowerneck -14.1358 -2.87453 -12.2306
upperneck 37.9783 -2.26021 0.724193
head 16.1576 -3.0407 1.94652
rclavicle -2.5842e-014 -3.18055e-015
rhumerus -23.0582 2.12619 -79.0262
rradius 52.6529
rwrist 17.7516
rhand -35.0573 8.68526
rfingers 7.12502
rthumb -8.20008 -21.1356
lclavicle -2.5842e-014 -3.18055e-015
lhumerus -27.4039 1.10705 89.8231
lradius 31.1756
lwrist -7.2415
lhand -13.7514 24.3213
lfingers 7.12502
lthumb 12.3688 53.9354
rfemur -12.2153 1.50952 22.8827
rtibia 29.6879
rfoot -23.9547 -5.87208
rtoes 7.21647
lfemur -31.4695 2.66124 -20.7789
ltibia 29.3726
lfoot -4.65364 5.46139
ltoes -16.2314
88
root 9.0034 17.7553 -0.0819795 -6.47293 -78.6577 14.4196
lowerback 4.62848 -0.420342 0.0589926
upperback 3.11654 -0.629895 2.49156
thorax 0.635024 -0.367219 2.55107
lowerneck -14.1646 -2.86923 -12.3427
upperneck 38.0805 -2.20721 0.696022
head 16.2179 -3.0445 1.96196
rclavicle -4.37326e-015 -7.15625e-015
rhumerus -22.9211 2.61376 -78.8694
rradius 52.7514
rwrist 17.6924
rhand -36.7454 7.12999
rfingers 7.12502
rthumb -9.82902 -22.6206
lclavicle -4.37326e-015 -7.15625e-015
lhumerus -27.3731 1.50452 89.8091
lradius 31.0274
lwrist -7.72521
lhand -13.9796 24.4344
lfingers 7.12502
lthumb 12.1488 54.0617
rfemur -12.1547 1.37648 22.9119
rtibia 29.6368
rfoot -24.2269 -5.97339
rtoes 7.41812
lfemur -31.6983 2.24907 -20.8116
ltibia 28.4497
lfoot -4.63134 5.4961
ltoes -16.7263
